<?xml version="1.0" standalone="no"?>
<!DOCTYPE svg PUBLIC "-//W3C//DTD SVG 20010904//EN"
 "http://www.w3.org/TR/2001/REC-SVG-20010904/DTD/svg10.dtd">
<svg version="1.0" xmlns="http://www.w3.org/2000/svg"
 width="60.000000pt" height="60.000000pt" viewBox="0 0 60.000000 60.000000"
 preserveAspectRatio="xMidYMid meet">

<g transform="translate(0.000000,60.000000) scale(0.100000,-0.100000)"
fill="#000000" stroke="none">
<path d="M176 464 c-64 -52 -116 -100 -116 -106 0 -5 9 -12 20 -15 19 -5 20
-14 20 -122 0 -78 4 -121 12 -129 17 -17 359 -17 376 0 8 8 12 52 12 130 0 96
3 118 14 118 33 0 28 25 -12 59 -36 32 -41 42 -44 86 -3 46 -5 50 -28 50 -17
0 -26 -7 -30 -24 -5 -23 -5 -23 -49 13 -23 20 -46 36 -51 36 -4 0 -60 -43
-124 -96z m184 -264 l0 -80 -60 0 -60 0 0 80 0 80 60 0 60 0 0 -80z"/>
</g>
</svg>
